<svg xmlns="http://www.w3.org/2000/svg" xmlns:xlink="http://www.w3.org/1999/xlink" version="1.1" x="0px" y="0px" viewBox="0 0 100 125" enable-background="new 0 0 100 100" xml:space="preserve"><path d="M24.752,93.356c-1.288,0-2.335,1.048-2.335,2.335h-0.5c0-1.368,0.974-2.512,2.264-2.777v-1.35h-5.584v4.096v0.718h8.74  v-0.688h-0.25C27.088,94.403,26.04,93.356,24.752,93.356z"/><path d="M35.262,93.356c-1.288,0-2.336,1.048-2.336,2.335h-0.5c0-1.368,0.974-2.512,2.265-2.777v-1.35h-5.584v4.096v0.718h8.74  v-0.688h-0.25C37.597,94.403,36.549,93.356,35.262,93.356z"/><path d="M35.223,90.897V60.725c0.007-0.101,0.03-0.198,0.03-0.301V58.86H18.145v1.565c0,0.141,0.029,0.274,0.042,0.412v30.06h6.688  V64.921h3.661v25.976H35.223z"/><path d="M32.612,9.017c1.721-0.38,1.078-2.333,0.035-2.681c0.058,1.617-4.501,0.925-4.501,0.925l0.038,0.017  c-0.48-0.068-0.966-0.116-1.465-0.116c-5.699,0-10.319,4.62-10.319,10.319c0,2.067,0.428,3.992,1.475,5.606l0.001-0.015  c1.135,3.812,4.662,6.593,8.843,6.593s7.708-2.781,8.843-6.593l0.001,0.015c1.047-1.614,1.475-3.539,1.475-5.606  C37.038,13.975,35.285,10.882,32.612,9.017z M26.613,26.039c-1.313,0-2.377-1.064-2.377-2.377h4.755  C28.991,24.975,27.926,26.039,26.613,26.039z"/><path d="M18.145,57.847h17.108V38.304l1.353,3.718l3.334-1.213l-0.005-0.014l1.047-0.386l-3-7.625  c-0.282-0.774-1.775-1.111-2.729-0.962v-0.016h-5.519c0,1.715-1.359,3.106-3.035,3.106c-1.676,0-3.035-1.391-3.035-3.106h-5.519  v0.015c-0.933-0.127-2.321,0.259-2.601,1.026l-3,7.688l4.266,1.488l1.334-3.666V57.847z"/><path d="M24.315,30.036v1.83c0,1.328,1.076,2.404,2.404,2.404s2.404-1.076,2.404-2.404v-1.83c-0.772,0.187-1.575,0.297-2.404,0.297  S25.088,30.223,24.315,30.036z"/><path d="M12.857,41.471l-7.14,19.618c-0.331,0.908,0.138,1.914,1.047,2.244c0.198,0.072,0.4,0.106,0.599,0.106  c0.715,0,1.387-0.441,1.646-1.153l7.152-19.65L12.857,41.471z"/><path d="M40.544,41.487l7.14,19.618c0.331,0.908-0.138,1.914-1.047,2.244c-0.198,0.072-0.4,0.106-0.599,0.106  c-0.715,0-1.387-0.441-1.646-1.153l-7.152-19.65L40.544,41.487z"/><path fill="none" d="M71.859,26.008c1.296,0,2.346-1.05,2.346-2.346h-4.691C69.513,24.958,70.564,26.008,71.859,26.008z"/><path fill="none" d="M76.18,8.131c0.032,0.017,0.062,0.036,0.093,0.053C76.241,8.167,76.212,8.148,76.18,8.131z"/><path fill="none" d="M80.905,14.056c0.037,0.141,0.069,0.284,0.099,0.427c-0.007-0.125-0.024-0.239-0.027-0.367l0.071-0.045  C81,14.066,80.952,14.061,80.905,14.056z"/><path d="M63.405,24.421c0.07-0.103,0.113-0.221,0.162-0.335c1.421,3.179,4.605,5.398,8.312,5.398c3.73,0,6.931-2.244,8.34-5.454  c0.037,0.072,0.059,0.15,0.104,0.216c0.453,0.406-0.104-1.035,0.754-1.961s0.769-2.072,0.17-3.139  c-0.49-0.873-0.097-1.571,0.197-1.939c1.402,4.877,5.487,5.938,5.3,5.293c-3.196-2.955-0.297-11.886-0.297-11.886l-0.028,0.018  c0.198-0.553,0.325-1.141,0.325-1.762c0-2.56-1.836-4.685-4.261-5.148c-0.295-0.079-0.592-0.105-0.886-0.089  c-0.034-0.001-0.066-0.01-0.1-0.01c-2.492,0-4.569,1.742-5.104,4.072c-0.397-0.042-0.795-0.053-1.189-0.002  c0.011,0.004,0.021,0.01,0.031,0.014c-1.045-0.404-2.18-0.63-3.368-0.63c-5.163,0-9.348,4.185-9.348,9.348  c0,0.178,0.045,0.342,0.115,0.493c0.002,0.004-0.002,0.012,0,0.016c0.182,0.305,0.388,1.295-0.211,2.362  c-0.599,1.067-0.631,2.239,0.227,3.165S62.952,24.828,63.405,24.421z M71.859,26.008c-1.296,0-2.346-1.05-2.346-2.346h4.691  C74.205,24.958,73.155,26.008,71.859,26.008z M81.004,14.483c-0.03-0.143-0.062-0.286-0.099-0.427  c0.047,0.005,0.095,0.01,0.143,0.014l-0.071,0.045C80.98,14.245,80.997,14.358,81.004,14.483z M76.273,8.184  c-0.032-0.017-0.062-0.037-0.093-0.053C76.212,8.148,76.241,8.167,76.273,8.184z"/><path d="M64.336,68.637l0.004,22.015l4.713-0.002l-0.004-22.012h5.663l0.005,22.015l4.713-0.002l-0.004-22.012h0.874V57.98h0.133  V38.438l1.353,3.718l3.334-1.213l-0.005-0.014l1.047-0.386l-3-7.625c-0.282-0.774-1.775-1.111-2.729-0.962v-0.016h-5.519  c0,1.715-1.359,3.106-3.035,3.106c-1.676,0-3.035-1.391-3.035-3.106h-5.519v0.015c-0.933-0.127-2.321,0.259-2.601,1.026l-3,7.688  l4.266,1.488l1.334-3.666v19.49h0.095v10.656H64.336z"/><path d="M70.132,93.124c-1.288,0-2.335,1.048-2.335,2.335h-0.5c0-1.368,0.974-2.512,2.264-2.777v-1.35h-5.584v4.096v0.718h8.74  v-0.688h-0.25C72.468,94.172,71.42,93.124,70.132,93.124z"/><path d="M80.641,93.124c-1.288,0-2.336,1.048-2.336,2.335h-0.5c0-1.368,0.974-2.512,2.265-2.777v-1.35h-5.584v4.096v0.718h8.74  v-0.688h-0.25C82.976,94.172,81.928,93.124,80.641,93.124z"/><path d="M69.552,31.853c0,1.328,1.076,2.404,2.404,2.404s2.404-1.076,2.404-2.404v-1.83c-0.772,0.187-1.575,0.297-2.404,0.297  s-1.631-0.11-2.404-0.297V31.853z"/><path d="M50.896,61.222c-0.331,0.908,0.138,1.914,1.047,2.244c0.198,0.072,0.4,0.106,0.599,0.106c0.715,0,1.387-0.441,1.646-1.153  l7.152-19.65l-3.304-1.166L50.896,61.222z"/><path d="M92.863,61.238l-7.14-19.618l-3.304,1.166l7.152,19.65c0.259,0.712,0.931,1.153,1.646,1.153  c0.199,0,0.401-0.034,0.599-0.106C92.726,63.152,93.195,62.146,92.863,61.238z"/><text x="0" y="115" fill="#000000" font-size="5px" font-weight="bold" font-family="'Helvetica Neue', Helvetica, Arial-Unicode, Arial, Sans-serif">Created by Marie Van den Broeck</text><text x="0" y="120" fill="#000000" font-size="5px" font-weight="bold" font-family="'Helvetica Neue', Helvetica, Arial-Unicode, Arial, Sans-serif">from the Noun Project</text></svg>